<svg width="16" height="19" viewBox="0 0 16 19" fill="none" xmlns="http://www.w3.org/2000/svg">
<path d="M0 3.11167C0.843844 2.55651 2.64257 1.69045 4.37467 1.00206C6.50649 0.158211 7.88328 -0.152668 9.28229 0.0693963C10.5925 0.224841 11.7694 0.957637 12.3246 2.35664C12.8575 3.73344 12.5688 5.33231 11.081 6.6647L11.1032 6.70912C13.0574 6.48706 14.8783 7.30869 15.6777 9.28506C16.2329 10.6841 16.033 12.0387 15.3669 13.1934C14.5896 14.5258 12.9241 15.7693 9.85966 16.9907C8.14977 17.6791 6.81738 18.0566 5.99574 18.2565L0 3.11167ZM5.79587 7.66398L6.95061 7.21986C8.77154 6.48704 9.45994 5.35452 9.01581 4.19979C8.54947 3.02285 7.41695 2.77858 5.84029 3.40036C5.08527 3.68904 4.66335 3.9111 4.39687 4.08875L5.79587 7.66398ZM8.50506 14.5036C8.86036 14.4148 9.28229 14.2593 9.88186 14.015C11.4585 13.3932 12.6133 12.2385 11.9693 10.6175C11.3475 9.063 9.70422 8.99636 7.97212 9.68476L6.77296 10.1511L8.50506 14.5036Z" fill="white"/>
</svg>
