<svg width="11" height="18" viewBox="0 0 11 18" fill="none" xmlns="http://www.w3.org/2000/svg">
<path d="M1.62997 11.6764C1.83399 11.1551 1.72063 9.27352 4.28224 7.39198C5.34769 6.62124 6.20911 5.9865 6.4358 5.12508C6.82118 3.62892 5.23435 2.94884 3.69285 2.99418C2.89943 3.01684 2.21936 2.38212 2.17402 1.5887C2.12868 0.772616 2.74075 0.0698686 3.55684 0.0245304C4.44093 -0.0434769 5.50638 0.0245193 6.61717 0.296548C9.97219 1.15797 11.0376 3.37954 10.4936 5.51044C9.99486 7.43731 8.47603 8.41209 7.2519 9.22817C5.16634 10.611 5.21168 12.1071 5.03033 12.5379L1.62997 11.6764ZM0.0884582 15.0315C0.428495 13.694 1.6073 12.9459 2.94477 13.2859C4.32759 13.626 4.96232 14.8274 4.64495 16.1876C4.30492 17.5024 3.14879 18.2732 1.76598 17.9104C0.405831 17.5704 -0.251578 16.3463 0.0884582 15.0315Z" fill="white"/>
</svg>
