<svg width="17" height="19" viewBox="0 0 17 19" fill="none" xmlns="http://www.w3.org/2000/svg">
<path d="M11.4454 17.584C11.3122 18.4939 10.4689 19.1152 9.58128 18.9821C8.738 18.8711 7.71719 18.627 6.56323 18.2276C0.638088 16.1194 -1.09285 11.3482 0.638092 6.46607C2.7241 0.629691 8.05006 -1.14563 13.2207 0.696266C14.2415 1.05133 15.107 1.49517 15.7949 1.89461C16.5938 2.38283 16.8379 3.47021 16.3053 4.24691L16.2831 4.29131C15.7949 5.02363 14.7963 5.24554 14.0418 4.77951C13.5536 4.46883 12.9544 4.18036 12.2886 3.93625C9.20403 2.84887 6.16378 3.84747 4.8101 7.66441C3.58956 11.1041 4.85448 13.9668 8.31636 15.2095C8.89334 15.4093 9.5147 15.5646 10.1139 15.6756C10.9793 15.8531 11.5785 16.6964 11.4454 17.584Z" fill="white"/>
</svg>
