<svg width="337" height="189" viewBox="0 0 337 189" fill="none" xmlns="http://www.w3.org/2000/svg">
<path d="M213.575 17.2913L218.295 12.7859C216.809 4.62873 209.07 0.692421 203.99 0.14703C190.26 -1.29944 183.263 8.04334 180.316 23.0297C174.948 50.3704 181.705 165.14 181.705 165.14C182.209 162.081 219.493 46.8135 218.535 15.1571L213.575 17.2913Z" fill="#225CA9"/>
<path d="M38.2943 114.631L37.7911 118.354L36.569 114.062C33.1664 112.995 30.1952 112.64 27.8469 113.161C6.83246 117.88 43.1345 146.478 43.1345 146.478C43.1345 146.478 31.561 139.293 20.3708 134.74L20.2271 138.51L18.7894 134.266C10.0913 130.898 2.01614 129.333 0.386739 134.194C-1.12285 138.771 1.92029 143.11 7.19188 146.975L13.2302 147.189L9.65995 148.659C21.8086 156.366 41.9125 161.867 48.8374 163.124C42.2 162.08 25.9779 159.994 16.3692 162.057L17.8788 164.547L14.0929 162.673C10.7382 163.74 8.62959 165.519 8.8692 168.317C9.30051 173.676 32.7831 175.597 32.7831 175.597L118.566 174.814L119.045 175.051C119.021 175.028 65.9461 124.638 38.2943 114.631Z" fill="#225CA9"/>
<path d="M336.163 159.804C334.246 151.03 314.885 148.469 290.204 153.259C298.998 150.295 311.075 143.513 317.329 140.431L313.04 137.727L321.642 138.13C328.663 134.052 332.185 130.068 329.885 126.44C328.16 123.737 324.398 122.622 319.318 122.622L316.634 127.389L317.185 122.694C304.318 123.429 301.418 121.342 284.07 128.29C294.901 122.717 296.482 120.986 297.177 118.757L291.307 116.22H298.184C303.743 110.292 312.561 98.5777 308.918 93.195C305.899 88.737 292.648 94.926 284.19 98.1272L280.596 106.142L281.314 99.2891C254.405 110.885 263.535 101.589 263.535 101.589C263.535 101.589 291.618 44.1098 275.084 45.3903C268.543 45.912 261.522 49.8008 254.621 56.0373L254.453 61.752L252.393 58.124C247.361 63.0088 242.401 68.8895 237.656 75.2445C244.102 61.8706 248.99 48.7101 249.469 38.9168L244.557 38.3239L249.397 34.9805C248.942 30.0245 246.953 26.3016 242.952 24.3098C236.794 21.2746 230.348 25.8748 223.998 34.9805L225.555 43.2087L221.602 38.6085C198.838 75.3156 178.039 165.685 178.039 165.685L176.386 170.593L243.239 173.865C243.215 173.865 339.997 177.517 336.163 159.804Z" fill="#225CA9"/>
<path d="M237.824 140.122H81.0181C75.0277 140.122 70.1634 135.759 70.1634 130.377V124.591C70.1634 119.208 75.0277 114.845 81.0181 114.845H237.824C230.659 121.887 230.516 132.653 237.536 139.814L237.824 140.122Z" fill="#3ED5FC"/>
<path d="M235.643 117.761H156.737C151.298 117.761 146.889 122.125 146.889 127.507C146.889 132.89 151.298 137.253 156.737 137.253H235.643C231.953 131.254 231.953 123.713 235.643 117.761Z" fill="#DFF0F4"/>
<path d="M251.219 87.2434C251.554 86.6505 251.051 85.9866 250.236 85.9866H104.908C95.1316 85.9866 87.1763 92.4601 87.1763 100.451C87.1763 108.442 95.1076 114.916 104.908 114.916H250.26C251.051 114.916 251.578 114.228 251.242 113.659C246.306 105.289 246.306 95.5665 251.219 87.2434Z" fill="#013D5D"/>
<path d="M250.212 89.093H145.978C139.796 89.093 134.764 94.0489 134.764 100.19V101.02C134.764 107.138 139.772 112.118 145.978 112.118H250.38C246.642 104.743 246.594 96.4676 250.212 89.093Z" fill="#DFF0F4"/>
<path d="M179.129 99H170.503C168.658 99 167.148 99.5691 167.148 100.28V100.399H179.129V99Z" fill="#FF61A4"/>
<path d="M186.485 102.201C186.485 100.447 184.233 99.0239 181.453 99.0239H170.383C172.491 99.0239 174.193 100.115 174.193 101.443L174.145 135.612L180.255 131.226L186.485 135.612V102.201Z" fill="#FF9AC5"/>
<path d="M294.111 139H61.1071C53.8706 139 48 144.81 48 151.971V162.879C48 170.04 53.8706 175.849 61.1071 175.849H294.111L293.992 175.731C284.023 165.44 284.071 149.196 294.111 139Z" fill="#FF61A4"/>
<path d="M280.66 144H156.107C148.871 144 143 149.81 143 156.971C143 164.132 148.871 169.942 156.107 169.942H280.66C276.084 161.903 276.084 152.015 280.66 144Z" fill="#DFF0F4"/>
<path d="M192 155C194.469 155 198.135 157.021 200.212 159.517L224.653 189H239L215.757 160.968C213.019 157.663 208.18 155 204.929 155H192Z" fill="#3190C1"/>
</svg>
