<svg width="101" height="204" viewBox="0 0 101 204" fill="none" xmlns="http://www.w3.org/2000/svg">
<path d="M10.6581 201.555C10.4163 201.709 10.1087 201.643 9.95481 201.423L5.82294 195.313L3.6471 194.742C3.38337 194.676 3.20755 194.39 3.29546 194.127C3.36139 193.863 3.64711 193.687 3.91084 193.775L6.46029 194.434L10.79 200.852C10.9438 201.094 10.8999 201.401 10.6581 201.555Z" fill="#EEFBFF"/>
<path d="M2.65811 187.885C-1.89134 191.028 -0.308923 198.215 5.18559 199.182C6.1746 199.357 7.05373 199.885 7.69109 200.676L9.86691 203.335C10.4603 204.061 11.5373 204.215 12.3065 203.687L14.0427 202.5C14.812 201.973 15.0537 200.918 14.5922 200.105C12.8559 197.116 11.9988 196.127 12.3504 194.259C13.3614 188.764 7.20757 184.742 2.65811 187.885Z" fill="#FFC359"/>
<path d="M12.9218 200.368C13.1636 200.215 13.2075 199.885 13.0537 199.665L8.78997 193.643L9.03172 191.401C9.0537 191.116 8.8559 190.874 8.59216 190.852C8.30644 190.83 8.06469 191.028 8.04271 191.291L7.757 193.907L12.2405 200.236C12.3724 200.478 12.6801 200.522 12.9218 200.368Z" fill="#EEFBFF"/>
<path d="M7.60316 200.588C7.62514 200.61 7.64712 200.632 7.66909 200.654L9.84493 203.314C10.4383 204.039 11.5153 204.193 12.2845 203.665L14.0208 202.478C14.79 201.951 15.0317 200.896 14.5702 200.083C13.801 198.742 13.2076 197.819 12.812 197.028L7.60316 200.588Z" fill="#3190C1"/>
<path d="M94.0512 16.199C94.3328 16.2523 94.5905 16.042 94.6287 15.7765L95.6413 8.46769L97.3518 6.99864C97.5634 6.80536 97.5846 6.49372 97.4073 6.2972C97.2141 6.08563 96.9024 6.0644 96.7059 6.24165L94.7076 7.95305L93.6447 15.6366C93.5754 15.9031 93.7697 16.1457 94.0512 16.199Z" fill="#EEFBFF"/>
<path d="M90.0229 12.7192C90.0239 12.7503 90.0249 12.7814 90.0259 12.8124L89.7923 16.2405C89.7286 17.1754 90.4085 18.0246 91.3304 18.1665L93.4085 18.4895C94.3304 18.6313 95.2286 18.0276 95.4487 17.1188C95.8053 15.6149 96.0044 14.5357 96.2575 13.6881L90.0229 12.7192Z" fill="#3190C1"/>
<path d="M91.5885 15.5153C91.3069 15.462 91.1277 15.2033 91.1659 14.9378L92.3349 7.65513L91.1395 5.74939C90.9923 5.52082 91.0596 5.19218 91.3042 5.06005C91.5328 4.91288 91.8615 4.9802 91.9936 5.2248L93.4012 7.45035L92.1659 15.0927C92.1127 15.3743 91.87 15.5685 91.5885 15.5153Z" fill="#EEFBFF"/>
<path d="M95.1113 0.0727202C89.6433 -0.749346 85.8785 5.5737 89.2228 10.0392C89.8236 10.8442 90.1036 11.8305 90.0268 12.8435L89.7932 16.2716C89.7295 17.2066 90.4094 18.0558 91.3313 18.1976L93.4095 18.5206C94.3313 18.6624 95.2296 18.0587 95.4496 17.1499C96.2293 13.7823 96.2812 12.4746 97.8161 11.3532C102.314 8.03891 100.579 0.894786 95.1113 0.0727202Z" fill="#FFC359"/>
</svg>
